<svg id="visual" viewBox="0 0 900 250" width="900" height="250" xmlns="http://www.w3.org/2000/svg" xmlns:xlink="http://www.w3.org/1999/xlink" version="1.1"><path d="M0 21L69 26L138 26L208 24L277 19L346 26L415 19L485 16L554 21L623 14L692 26L762 21L831 14L900 16L900 0L831 0L762 0L692 0L623 0L554 0L485 0L415 0L346 0L277 0L208 0L138 0L69 0L0 0Z" fill="#000000"></path><path d="M0 49L69 44L138 41L208 36L277 39L346 39L415 34L485 46L554 44L623 41L692 41L762 36L831 41L900 31L900 14L831 12L762 19L692 24L623 12L554 19L485 14L415 17L346 24L277 17L208 22L138 24L69 24L0 19Z" fill="#001b6e"></path><path d="M0 69L69 76L138 61L208 74L277 74L346 69L415 64L485 81L554 74L623 64L692 64L762 74L831 64L900 71L900 29L831 39L762 34L692 39L623 39L554 42L485 44L415 32L346 37L277 37L208 34L138 39L69 42L0 47Z" fill="#00308b"></path><path d="M0 116L69 139L138 96L208 141L277 134L346 124L415 156L485 144L554 116L623 136L692 141L762 146L831 149L900 124L900 69L831 62L762 72L692 62L623 62L554 72L485 79L415 62L346 67L277 72L208 72L138 59L69 74L0 67Z" fill="#0048a8"></path><path d="M0 181L69 181L138 176L208 201L277 204L346 199L415 201L485 199L554 201L623 181L692 186L762 186L831 201L900 181L900 122L831 147L762 144L692 139L623 134L554 114L485 142L415 154L346 122L277 132L208 139L138 94L69 137L0 114Z" fill="#105fc4"></path><path d="M0 221L69 219L138 231L208 236L277 234L346 229L415 224L485 219L554 229L623 221L692 224L762 219L831 224L900 224L900 179L831 199L762 184L692 184L623 179L554 199L485 197L415 199L346 197L277 202L208 199L138 174L69 179L0 179Z" fill="#1c76e0"></path><path d="M0 251L69 251L138 251L208 251L277 251L346 251L415 251L485 251L554 251L623 251L692 251L762 251L831 251L900 251L900 222L831 222L762 217L692 222L623 219L554 227L485 217L415 222L346 227L277 232L208 234L138 229L69 217L0 219Z" fill="#268ffc"></path></svg>