<svg id="visual" viewBox="0 0 900 100" width="900" height="100" xmlns="http://www.w3.org/2000/svg" xmlns:xlink="http://www.w3.org/1999/xlink" version="1.1"><path d="M0 38L21.5 39.2C43 40.3 86 42.7 128.8 43.8C171.7 45 214.3 45 257.2 41.7C300 38.3 343 31.7 385.8 29.5C428.7 27.3 471.3 29.7 514.2 28.7C557 27.7 600 23.3 642.8 22.7C685.7 22 728.3 25 771.2 25.2C814 25.3 857 22.7 878.5 21.3L900 20L900 101L878.5 101C857 101 814 101 771.2 101C728.3 101 685.7 101 642.8 101C600 101 557 101 514.2 101C471.3 101 428.7 101 385.8 101C343 101 300 101 257.2 101C214.3 101 171.7 101 128.8 101C86 101 43 101 21.5 101L0 101Z" fill="#000000"></path><path d="M0 57L21.5 54.2C43 51.3 86 45.7 128.8 44.2C171.7 42.7 214.3 45.3 257.2 44.3C300 43.3 343 38.7 385.8 37.3C428.7 36 471.3 38 514.2 38.5C557 39 600 38 642.8 40.3C685.7 42.7 728.3 48.3 771.2 47.3C814 46.3 857 38.7 878.5 34.8L900 31L900 101L878.5 101C857 101 814 101 771.2 101C728.3 101 685.7 101 642.8 101C600 101 557 101 514.2 101C471.3 101 428.7 101 385.8 101C343 101 300 101 257.2 101C214.3 101 171.7 101 128.8 101C86 101 43 101 21.5 101L0 101Z" fill="#00257c"></path><path d="M0 62L21.5 61.3C43 60.7 86 59.3 128.8 59.8C171.7 60.3 214.3 62.7 257.2 63.8C300 65 343 65 385.8 64.3C428.7 63.7 471.3 62.3 514.2 60C557 57.7 600 54.3 642.8 53.3C685.7 52.3 728.3 53.7 771.2 53.2C814 52.7 857 50.3 878.5 49.2L900 48L900 101L878.5 101C857 101 814 101 771.2 101C728.3 101 685.7 101 642.8 101C600 101 557 101 514.2 101C471.3 101 428.7 101 385.8 101C343 101 300 101 257.2 101C214.3 101 171.7 101 128.8 101C86 101 43 101 21.5 101L0 101Z" fill="#0048a8"></path><path d="M0 66L21.5 66.8C43 67.7 86 69.3 128.8 69.8C171.7 70.3 214.3 69.7 257.2 70.2C300 70.7 343 72.3 385.8 74C428.7 75.7 471.3 77.3 514.2 75.2C557 73 600 67 642.8 64C685.7 61 728.3 61 771.2 61C814 61 857 61 878.5 61L900 61L900 101L878.5 101C857 101 814 101 771.2 101C728.3 101 685.7 101 642.8 101C600 101 557 101 514.2 101C471.3 101 428.7 101 385.8 101C343 101 300 101 257.2 101C214.3 101 171.7 101 128.8 101C86 101 43 101 21.5 101L0 101Z" fill="#166bd2"></path><path d="M0 82L21.5 82.2C43 82.3 86 82.7 128.8 83.8C171.7 85 214.3 87 257.2 86.8C300 86.7 343 84.3 385.8 83.5C428.7 82.7 471.3 83.3 514.2 82.2C557 81 600 78 642.8 76.7C685.7 75.3 728.3 75.7 771.2 76.3C814 77 857 78 878.5 78.5L900 79L900 101L878.5 101C857 101 814 101 771.2 101C728.3 101 685.7 101 642.8 101C600 101 557 101 514.2 101C471.3 101 428.7 101 385.8 101C343 101 300 101 257.2 101C214.3 101 171.7 101 128.8 101C86 101 43 101 21.5 101L0 101Z" fill="#268ffc"></path></svg>