<svg id="visual" viewBox="0 0 500 100" width="500" height="100" xmlns="http://www.w3.org/2000/svg" xmlns:xlink="http://www.w3.org/1999/xlink" version="1.1"><rect x="0" y="0" width="500" height="100" fill="#268FFC"></rect><path d="M0 22L9.3 24.5C18.7 27 37.3 32 55.8 35.5C74.3 39 92.7 41 111.2 42.2C129.7 43.3 148.3 43.7 166.8 40C185.3 36.3 203.7 28.7 222.2 25.7C240.7 22.7 259.3 24.3 277.8 27.2C296.3 30 314.7 34 333.2 32.8C351.7 31.7 370.3 25.3 388.8 27.7C407.3 30 425.7 41 444.2 42.5C462.7 44 481.3 36 490.7 32L500 28L500 101L490.7 101C481.3 101 462.7 101 444.2 101C425.7 101 407.3 101 388.8 101C370.3 101 351.7 101 333.2 101C314.7 101 296.3 101 277.8 101C259.3 101 240.7 101 222.2 101C203.7 101 185.3 101 166.8 101C148.3 101 129.7 101 111.2 101C92.7 101 74.3 101 55.8 101C37.3 101 18.7 101 9.3 101L0 101Z" fill="#268ffc"></path><path d="M0 32L9.3 32.8C18.7 33.7 37.3 35.3 55.8 38.5C74.3 41.7 92.7 46.3 111.2 45C129.7 43.7 148.3 36.3 166.8 34.8C185.3 33.3 203.7 37.7 222.2 39C240.7 40.3 259.3 38.7 277.8 36.3C296.3 34 314.7 31 333.2 34C351.7 37 370.3 46 388.8 51.7C407.3 57.3 425.7 59.7 444.2 58C462.7 56.3 481.3 50.7 490.7 47.8L500 45L500 101L490.7 101C481.3 101 462.7 101 444.2 101C425.7 101 407.3 101 388.8 101C370.3 101 351.7 101 333.2 101C314.7 101 296.3 101 277.8 101C259.3 101 240.7 101 222.2 101C203.7 101 185.3 101 166.8 101C148.3 101 129.7 101 111.2 101C92.7 101 74.3 101 55.8 101C37.3 101 18.7 101 9.3 101L0 101Z" fill="#166bd2"></path><path d="M0 66L9.3 63.8C18.7 61.7 37.3 57.3 55.8 55.8C74.3 54.3 92.7 55.7 111.2 55.8C129.7 56 148.3 55 166.8 53.3C185.3 51.7 203.7 49.3 222.2 52C240.7 54.7 259.3 62.3 277.8 62.8C296.3 63.3 314.7 56.7 333.2 56C351.7 55.3 370.3 60.7 388.8 62.7C407.3 64.7 425.7 63.3 444.2 64.3C462.7 65.3 481.3 68.7 490.7 70.3L500 72L500 101L490.7 101C481.3 101 462.7 101 444.2 101C425.7 101 407.3 101 388.8 101C370.3 101 351.7 101 333.2 101C314.7 101 296.3 101 277.8 101C259.3 101 240.7 101 222.2 101C203.7 101 185.3 101 166.8 101C148.3 101 129.7 101 111.2 101C92.7 101 74.3 101 55.8 101C37.3 101 18.7 101 9.3 101L0 101Z" fill="#0048a8"></path><path d="M0 78L9.3 76.2C18.7 74.3 37.3 70.7 55.8 67.3C74.3 64 92.7 61 111.2 62.8C129.7 64.7 148.3 71.3 166.8 74.5C185.3 77.7 203.7 77.3 222.2 74.2C240.7 71 259.3 65 277.8 62.7C296.3 60.3 314.7 61.7 333.2 61.8C351.7 62 370.3 61 388.8 60.3C407.3 59.7 425.7 59.3 444.2 62.7C462.7 66 481.3 73 490.7 76.5L500 80L500 101L490.7 101C481.3 101 462.7 101 444.2 101C425.7 101 407.3 101 388.8 101C370.3 101 351.7 101 333.2 101C314.7 101 296.3 101 277.8 101C259.3 101 240.7 101 222.2 101C203.7 101 185.3 101 166.8 101C148.3 101 129.7 101 111.2 101C92.7 101 74.3 101 55.8 101C37.3 101 18.7 101 9.3 101L0 101Z" fill="#00257c"></path><path d="M0 75L9.3 77.2C18.7 79.3 37.3 83.7 55.8 86.2C74.3 88.7 92.7 89.3 111.2 88C129.7 86.7 148.3 83.3 166.8 82.8C185.3 82.3 203.7 84.7 222.2 85.8C240.7 87 259.3 87 277.8 87.8C296.3 88.7 314.7 90.3 333.2 89C351.7 87.7 370.3 83.3 388.8 82.8C407.3 82.3 425.7 85.7 444.2 84.7C462.7 83.7 481.3 78.3 490.7 75.7L500 73L500 101L490.7 101C481.3 101 462.7 101 444.2 101C425.7 101 407.3 101 388.8 101C370.3 101 351.7 101 333.2 101C314.7 101 296.3 101 277.8 101C259.3 101 240.7 101 222.2 101C203.7 101 185.3 101 166.8 101C148.3 101 129.7 101 111.2 101C92.7 101 74.3 101 55.8 101C37.3 101 18.7 101 9.3 101L0 101Z" fill="#000000"></path></svg>