<svg id="visual" viewBox="0 0 500 100" width="500" height="100" xmlns="http://www.w3.org/2000/svg" xmlns:xlink="http://www.w3.org/1999/xlink" version="1.1"><rect x="0" y="0" width="500" height="100" fill="#F6F7F9"></rect><path d="M0 48L7.5 46.2C15 44.3 30 40.7 45.2 44.8C60.3 49 75.7 61 90.8 65.8C106 70.7 121 68.3 136.2 61.8C151.3 55.3 166.7 44.7 181.8 44.7C197 44.7 212 55.3 227.2 57.2C242.3 59 257.7 52 272.8 52.2C288 52.3 303 59.7 318.2 58.2C333.3 56.7 348.7 46.3 363.8 45.5C379 44.7 394 53.3 409.2 59.5C424.3 65.7 439.7 69.3 454.8 67.3C470 65.3 485 57.7 492.5 53.8L500 50L500 101L492.5 101C485 101 470 101 454.8 101C439.7 101 424.3 101 409.2 101C394 101 379 101 363.8 101C348.7 101 333.3 101 318.2 101C303 101 288 101 272.8 101C257.7 101 242.3 101 227.2 101C212 101 197 101 181.8 101C166.7 101 151.3 101 136.2 101C121 101 106 101 90.8 101C75.7 101 60.3 101 45.2 101C30 101 15 101 7.5 101L0 101Z" fill="#ffffff" stroke-linecap="round" stroke-linejoin="miter"></path></svg>