<svg id="visual" viewBox="0 0 500 100" width="500" height="100" xmlns="http://www.w3.org/2000/svg" xmlns:xlink="http://www.w3.org/1999/xlink" version="1.1"><path d="M0 38L9.3 40C18.7 42 37.3 46 55.8 48.8C74.3 51.7 92.7 53.3 111.2 54.2C129.7 55 148.3 55 166.8 52C185.3 49 203.7 43 222.2 40.5C240.7 38 259.3 39 277.8 41.2C296.3 43.3 314.7 46.7 333.2 45.8C351.7 45 370.3 40 388.8 42C407.3 44 425.7 53 444.2 54.3C462.7 55.7 481.3 49.3 490.7 46.2L500 43L500 101L490.7 101C481.3 101 462.7 101 444.2 101C425.7 101 407.3 101 388.8 101C370.3 101 351.7 101 333.2 101C314.7 101 296.3 101 277.8 101C259.3 101 240.7 101 222.2 101C203.7 101 185.3 101 166.8 101C148.3 101 129.7 101 111.2 101C92.7 101 74.3 101 55.8 101C37.3 101 18.7 101 9.3 101L0 101Z" fill="#ffffff"></path><path d="M0 45L9.3 45.7C18.7 46.3 37.3 47.7 55.8 50.3C74.3 53 92.7 57 111.2 56C129.7 55 148.3 49 166.8 47.7C185.3 46.3 203.7 49.7 222.2 50.8C240.7 52 259.3 51 277.8 49.2C296.3 47.3 314.7 44.7 333.2 47C351.7 49.3 370.3 56.7 388.8 61.2C407.3 65.7 425.7 67.3 444.2 66C462.7 64.7 481.3 60.3 490.7 58.2L500 56L500 101L490.7 101C481.3 101 462.7 101 444.2 101C425.7 101 407.3 101 388.8 101C370.3 101 351.7 101 333.2 101C314.7 101 296.3 101 277.8 101C259.3 101 240.7 101 222.2 101C203.7 101 185.3 101 166.8 101C148.3 101 129.7 101 111.2 101C92.7 101 74.3 101 55.8 101C37.3 101 18.7 101 9.3 101L0 101Z" fill="#d7e2ff"></path><path d="M0 73L9.3 71.2C18.7 69.3 37.3 65.7 55.8 64.3C74.3 63 92.7 64 111.2 64.2C129.7 64.3 148.3 63.7 166.8 62.5C185.3 61.3 203.7 59.7 222.2 61.8C240.7 64 259.3 70 277.8 70.3C296.3 70.7 314.7 65.3 333.2 64.8C351.7 64.3 370.3 68.7 388.8 70.3C407.3 72 425.7 71 444.2 71.7C462.7 72.3 481.3 74.7 490.7 75.8L500 77L500 101L490.7 101C481.3 101 462.7 101 444.2 101C425.7 101 407.3 101 388.8 101C370.3 101 351.7 101 333.2 101C314.7 101 296.3 101 277.8 101C259.3 101 240.7 101 222.2 101C203.7 101 185.3 101 166.8 101C148.3 101 129.7 101 111.2 101C92.7 101 74.3 101 55.8 101C37.3 101 18.7 101 9.3 101L0 101Z" fill="#acc5ff"></path><path d="M0 83L9.3 81.3C18.7 79.7 37.3 76.3 55.8 73.5C74.3 70.7 92.7 68.3 111.2 69.8C129.7 71.3 148.3 76.7 166.8 79.3C185.3 82 203.7 82 222.2 79.5C240.7 77 259.3 72 277.8 70C296.3 68 314.7 69 333.2 69C351.7 69 370.3 68 388.8 67.5C407.3 67 425.7 67 444.2 69.8C462.7 72.7 481.3 78.3 490.7 81.2L500 84L500 101L490.7 101C481.3 101 462.7 101 444.2 101C425.7 101 407.3 101 388.8 101C370.3 101 351.7 101 333.2 101C314.7 101 296.3 101 277.8 101C259.3 101 240.7 101 222.2 101C203.7 101 185.3 101 166.8 101C148.3 101 129.7 101 111.2 101C92.7 101 74.3 101 55.8 101C37.3 101 18.7 101 9.3 101L0 101Z" fill="#7aa9fe"></path><path d="M0 80L9.3 81.7C18.7 83.3 37.3 86.7 55.8 88.7C74.3 90.7 92.7 91.3 111.2 90.3C129.7 89.3 148.3 86.7 166.8 86.2C185.3 85.7 203.7 87.3 222.2 88.2C240.7 89 259.3 89 277.8 89.7C296.3 90.3 314.7 91.7 333.2 90.7C351.7 89.7 370.3 86.3 388.8 86C407.3 85.7 425.7 88.3 444.2 87.5C462.7 86.7 481.3 82.3 490.7 80.2L500 78L500 101L490.7 101C481.3 101 462.7 101 444.2 101C425.7 101 407.3 101 388.8 101C370.3 101 351.7 101 333.2 101C314.7 101 296.3 101 277.8 101C259.3 101 240.7 101 222.2 101C203.7 101 185.3 101 166.8 101C148.3 101 129.7 101 111.2 101C92.7 101 74.3 101 55.8 101C37.3 101 18.7 101 9.3 101L0 101Z" fill="#268ffc"></path></svg>